<?xml version="1.0" encoding="utf-8"?>
<!-- Generator: Adobe Illustrator 17.0.0, SVG Export Plug-In . SVG Version: 6.00 Build 0)  -->
<!DOCTYPE svg PUBLIC "-//W3C//DTD SVG 1.1//EN" "http://www.w3.org/Graphics/SVG/1.1/DTD/svg11.dtd">
<svg version="1.1" id="Capa_1" xmlns="http://www.w3.org/2000/svg" xmlns:xlink="http://www.w3.org/1999/xlink" x="0px" y="0px"
	 width="68.333px" height="74.667px" viewBox="0 0 68.333 74.667" enable-background="new 0 0 68.333 74.667" xml:space="preserve">
<g>
	<path d="M6.559,45.529h16.392V29.138H6.559V45.529z M9.413,31.991h10.684v10.681H9.413V31.991z"/>
	<rect x="27.341" y="11.237" width="33.659" height="3.211"/>
	<rect x="27.341" y="16.944" width="22.671" height="3.211"/>
	<path d="M20.097,18.775v2.7h-2.731l-1.189,1.175c-0.162,0.162-0.192,0.227-0.39,0.305c-0.204,0.081-0.893,0.011-1.033-0.121
		l-1.368-1.359H9.413v-3.949L6.98,15.109c-0.181-0.313-0.175-0.965,0.149-1.29l2.284-2.284v-0.744h10.296l2.845-2.854H6.559v16.392
		h16.392v-8.376L20.097,18.775z"/>
	<path d="M28.638,7.201l-1.105-1.105c-0.29-0.29-0.759-0.29-1.049,0L15.359,17.221l-4.335-4.334c-0.29-0.29-0.759-0.29-1.049,0
		l-1.171,1.171c-0.29,0.29-0.29,0.759,0,1.049l5.964,5.964c0.145,0.145,0.334,0.217,0.524,0.217c0.19,0,0.38-0.072,0.524-0.217
		l12.82-12.82c0.139-0.139,0.217-0.328,0.217-0.524S28.777,7.34,28.638,7.201L28.638,7.201z"/>
	<path d="M68.334,74.667H0V0h68.333V74.667z M4,70.667h60.333V4H4V70.667z"/>
</g>
<rect x="27.341" y="31.765" width="33.659" height="3.211"/>
<rect x="27.341" y="37.472" width="22.671" height="3.211"/>
<path d="M6.559,66.834h16.392V50.443H6.559V66.834z M9.413,53.296h10.684v10.681H9.413V53.296z"/>
<rect x="27.341" y="53.07" width="33.659" height="3.211"/>
<rect x="27.341" y="58.777" width="22.671" height="3.211"/>
</svg>
