<?xml version="1.0" encoding="utf-8"?>
<!-- Generator: Adobe Illustrator 17.0.0, SVG Export Plug-In . SVG Version: 6.00 Build 0)  -->
<!DOCTYPE svg PUBLIC "-//W3C//DTD SVG 1.1//EN" "http://www.w3.org/Graphics/SVG/1.1/DTD/svg11.dtd">
<svg version="1.1" xmlns="http://www.w3.org/2000/svg" xmlns:xlink="http://www.w3.org/1999/xlink" x="0px" y="0px" width="84px"
	 height="84px" viewBox="0 0 84 84" enable-background="new 0 0 84 84" xml:space="preserve">
<g id="Objeto_valido">
	<g>
		<rect x="33.967" y="17.623" width="30.199" height="5.401"/>
		<path d="M10.434,34.745h18.583V16.162H10.434V34.745z M14.804,20.532h9.843v9.84h-9.843V20.532z"/>
		<rect x="33.967" y="27.677" width="21.033" height="5.401"/>
	</g>
	<g>
		<path d="M10.434,66.078h18.583V47.496H10.434V66.078z M14.804,51.865h9.843v9.84h-9.843V51.865z"/>
	</g>
	<polygon points="43,79 6,79 6,5 70,5 70,30 76,30 76,0 0,0 0,84 43,84 	"/>
	<polygon points="84,57 69,57 69,41 57,41 57,57 42,57 42,68 57,68 57,84 69,84 69,68 84,68 	"/>
</g>
<g id="Capa_2" display="none">
	<g display="inline">
		<circle fill="#FFFFFF" cx="52" cy="-34.143" r="24.538"/>
		<circle fill="#010202" cx="67" cy="-35.143" r="19.792"/>
	</g>
	<g display="inline">
		<rect x="111.221" y="36.644" width="33.659" height="3.211"/>
		<rect x="111.221" y="42.352" width="22.671" height="3.211"/>
		<path d="M103.978,44.183v2.7h-2.731l-1.189,1.175c-0.162,0.162-0.192,0.227-0.39,0.305c-0.204,0.081-0.893,0.011-1.033-0.121
			l-1.368-1.359h-3.974v-3.949l-2.433-2.418c-0.181-0.313-0.175-0.965,0.149-1.29l2.284-2.284v-0.744h10.296l2.845-2.854H90.44
			v16.392h16.392v-8.376L103.978,44.183z"/>
	</g>
</g>
</svg>
