<?xml version="1.0" encoding="utf-8"?>
<!-- Generator: Adobe Illustrator 17.0.0, SVG Export Plug-In . SVG Version: 6.00 Build 0)  -->
<!DOCTYPE svg PUBLIC "-//W3C//DTD SVG 1.1//EN" "http://www.w3.org/Graphics/SVG/1.1/DTD/svg11.dtd">
<svg version="1.1" id="Capa_1" xmlns="http://www.w3.org/2000/svg" xmlns:xlink="http://www.w3.org/1999/xlink" x="0px" y="0px"
	 width="66.875px" height="45.512px" viewBox="0 0 66.875 45.512" enable-background="new 0 0 66.875 45.512" xml:space="preserve">
<g>
	<rect x="24.208" y="16.78" width="18.829" height="1.982"/>
	<rect x="17.714" y="12.311" width="31.828" height="1.982"/>
	<path d="M50.095,38.446l1.328,1.495h9.96V5.007H5.503v34.934h16.028l-0.112-1.495H6.99V6.494h52.907v31.952H50.095z M50.095,38.446
		"/>
	<path d="M26.504,29.172c0,3.691,3.005,6.684,6.696,6.684c3.694,0,6.699-2.994,6.699-6.684c0-3.702-3.005-6.696-6.699-6.696
		C29.509,22.476,26.504,25.47,26.504,29.172L26.504,29.172z M26.504,29.172"/>
	<path d="M47.807,38.39l-4.989-6.301l-9.006,7.12l4.989,6.304l2.382-6.251L47.807,38.39z M47.807,38.39"/>
	<path d="M22.848,29.172l-6.866,5.425l6.797,2.576l0.945,7.203l6.854-5.422L22.848,29.172z M22.848,29.172"/>
	<path d="M29.443,42.373l-3.365,2.97l9.263,0.023l-2.273-2.97L29.443,42.373z M29.443,42.373"/>
	<path d="M0,0v45.344h22.07l-0.271-2.97H2.97V2.97h60.946v39.403H42.149l-1.181,2.97h25.908V0H0z M0,0"/>
</g>
</svg>
